<?xml version="1.0" encoding="UTF-8"?>
<!DOCTYPE svg PUBLIC "-//W3C//DTD SVG 1.1//EN" "http://www.w3.org/Graphics/SVG/1.1/DTD/svg11.dtd">
<!-- Creator: CorelDRAW -->
<svg xmlns="http://www.w3.org/2000/svg" xml:space="preserve" width="200mm" height="80mm" version="1.1" style="shape-rendering:geometricPrecision; text-rendering:geometricPrecision; image-rendering:optimizeQuality; fill-rule:evenodd; clip-rule:evenodd"
viewBox="0 0 20000 8000"
 xmlns:xlink="http://www.w3.org/1999/xlink"
 xmlns:xodm="http://www.corel.com/coreldraw/odm/2003">
 <defs>
  <style type="text/css">
   <![CDATA[
    .fil6 {fill:#1F9680}
    .fil5 {fill:#28AA92}
    .fil0 {fill:#2C9C48}
    .fil4 {fill:#4CB853}
    .fil7 {fill:#CD2026}
    .fil3 {fill:#DF2028}
    .fil1 {fill:#F68421}
    .fil2 {fill:#F9961E}
    .fil8 {fill:black;fill-rule:nonzero}
   ]]>
  </style>
 </defs>
 <g id="Слой_x0020_1">
  <metadata id="CorelCorpID_0Corel-Layer"/>
  <path class="fil0" d="M4130.84 5267.6l39.6 -42.48c146.36,-157.01 398.81,-129.67 551.5,21.17l829.34 819.3c152.69,150.83 130.59,399.72 -21.19,551.49l-0.02 0.01c-151.76,151.77 -398.81,129.67 -551.48,-21.17l-829.34 -819.3c-152.68,-150.85 -131.35,-387.86 -18.41,-509.02z"/>
  <path class="fil1" d="M586.13 1363.2l39.6 -42.48c146.36,-157.01 398.81,-129.67 551.5,21.17l829.34 819.3c152.69,150.83 130.59,399.72 -21.19,551.49l-0.02 0.01c-151.76,151.77 -398.81,129.67 -551.48,-21.17l-829.34 -819.3c-152.68,-150.85 -131.35,-387.86 -18.41,-509.02z"/>
  <path class="fil2" d="M888.07 1219.5l0.01 0c214.65,0 390.26,175.6 390.26,390.25l0 5543.05c0,214.63 -175.61,390.25 -390.26,390.25l-0.01 0c-214.65,0 -390.26,-175.62 -390.26,-390.25l0 -5543.05c0,-214.65 175.61,-390.25 390.26,-390.25z"/>
  <path class="fil3" d="M4211.89 3828.46l0.01 0.01c151.78,151.77 155.23,400.52 3.06,551.89l-3051.06 3034.99c-152.16,151.36 -400.13,154.84 -551.9,3.06l-0.01 -0.01c-151.77,-151.78 -155.23,-400.53 -3.06,-551.9l3051.06 -3034.99c152.18,-151.38 400.12,-154.82 551.9,-3.05z"/>
  <path class="fil4" d="M5263.62 399.29l0.01 0c214.65,0 390.26,175.6 390.26,390.25l0 5543.05c0,214.63 -175.61,390.25 -390.26,390.25l-0.01 0c-214.65,0 -390.26,-175.62 -390.26,-390.25l0 -5543.05c0,-214.65 175.61,-390.25 390.26,-390.25z"/>
  <path class="fil5" d="M5540.43 1065.98l-3019.51 3026.97c-151.56,151.95 -400.14,152.46 -551.9,0.68l-0.01 -0.01c-151.77,-151.78 -152.26,-399.95 -0.68,-551.9l3019.5 -3026.98c383.98,-384.93 895.41,207.59 552.6,551.24z"/>
  <circle class="fil6" cx="2240.59" cy="3819.86" r="387.71"/>
  <circle class="fil7" cx="3941.04" cy="4105.17" r="387.71"/>
  <path class="fil8" d="M7336.38 1107.08l1197.31 2936.71 1192.59 -2936.71 344.11 0 -1395.29 3346.81 -287.54 0 -1395.29 -3346.81 344.11 0zm4648.9 0l278.11 0 1390.58 3346.81 -348.83 0 -433.67 -1046.47 -1503.7 0 -428.96 1046.47 -353.53 0 1400 -3346.81zm810.77 2041.08l-674.07 -1654.54 -683.5 1654.54 1357.57 0zm2023.32 1305.73l0 -3342.09 329.97 0 0 1942.09 1843.1 -1946.81 362.96 0 -1367.01 1470.71 1437.72 1876.1 -362.97 0 -1282.15 -1682.83 -631.65 655.22 0 1027.61 -329.97 0zm3715.57 0l0 -3346.81 329.97 0 0 3346.81 -329.97 0z"/>
  <path class="fil8" d="M6443.78 6111.2l57.13 0 86.55 218.1 87.41 -218.1 57.99 0 -107.32 262.24 117.7 277.83 222.43 -544.4 65.78 0 -260.51 614.5 -53.66 0 -128.96 -303.79 -129.82 303.79 -52.8 0 -259.64 -614.5 64.91 0 223.29 544.4 116.85 -277.83 -107.33 -262.24zm1391.65 556.51l0 53.66 -412.84 0 0 -614.5 405.05 0 0 53.66 -344.47 0 0 221.57 300.33 0 0 51.06 -300.33 0 0 234.55 352.26 0zm1183.92 53.66l0 -504.58 -224.16 390.34 -35.49 0 -224.16 -390.34 0 504.58 -60.58 0 0 -614.5 62.31 0 239.74 420.63 241.48 -420.63 61.45 0 0 614.5 -60.59 0zm709.64 -614.5l51.06 0 255.32 614.5 -64.05 0 -79.62 -192.14 -276.09 0 -78.76 192.14 -64.91 0 257.05 -614.5zm148.86 374.76l-123.76 -303.79 -125.5 303.79 249.26 0zm550.39 239.74l0 -613.63 60.58 0 0 356.58 338.41 -357.45 66.64 0 -250.99 270.03 263.97 344.47 -66.64 0 -235.41 -308.98 -115.98 120.3 0 188.68 -60.58 0zm1273.94 -53.66l0 53.66 -412.84 0 0 -614.5 405.05 0 0 53.66 -344.47 0 0 221.57 300.33 0 0 51.06 -300.33 0 0 234.55 352.26 0zm639.53 53.66l0 -614.5 403.32 0 0 53.66 -342.74 0 0 225.9 289.08 0 0 50.19 -289.08 0 0 284.75 -60.58 0zm1063.62 -50.2c38.66,0 70.83,-7.36 96.5,-22.07 25.68,-14.71 46.16,-34.04 61.45,-57.99 15.29,-23.94 25.97,-51.2 32.02,-81.79 6.06,-30.58 9.09,-61.44 9.09,-92.6l0 -309.85 60.59 0 0 309.85c0,41.54 -4.62,80.92 -13.85,118.14 -9.23,37.21 -24.09,69.96 -44.57,98.23 -20.49,28.27 -47.17,50.78 -80.06,67.51 -32.89,16.73 -72.99,25.1 -120.3,25.1 -48.47,0 -89.29,-8.8 -122.47,-26.4 -33.18,-17.6 -59.86,-40.82 -80.06,-69.67 -20.19,-28.85 -34.62,-61.74 -43.27,-98.67 -8.66,-36.93 -12.99,-75.01 -12.99,-114.24l0 -309.85 59.72 0 0 309.85c0,32.31 3.18,63.76 9.52,94.34 6.35,30.58 17.17,57.7 32.46,81.35 15.29,23.66 35.63,42.7 61.02,57.12 25.38,14.43 57.12,21.64 95.2,21.64zm708.77 50.2l0 -614.5 259.65 0c26.54,0 50.92,5.63 73.13,16.88 22.21,11.25 41.4,25.96 57.55,44.14 16.16,18.17 28.71,38.8 37.65,61.88 8.95,23.08 13.42,46.45 13.42,70.11 0,22.5 -3.32,43.99 -9.95,64.48 -6.64,20.48 -15.87,38.94 -27.7,55.39 -11.83,16.44 -26.11,30.29 -42.84,41.54 -16.73,11.25 -35.49,18.9 -56.26,22.94l150.6 237.14 -68.38 0 -144.53 -226.76 -181.76 0 0 226.76 -60.58 0zm60.58 -280.42l200.8 0c17.88,0 34.18,-3.89 48.9,-11.68 14.71,-7.79 27.26,-18.32 37.65,-31.59 10.38,-13.27 18.46,-28.28 24.23,-45.01 5.77,-16.73 8.65,-34.33 8.65,-52.79 0,-18.47 -3.31,-36.21 -9.95,-53.23 -6.63,-17.02 -15.58,-31.88 -26.83,-44.57 -11.25,-12.7 -24.52,-22.8 -39.81,-30.3 -15.29,-7.5 -31.3,-11.25 -48.04,-11.25l-195.6 0 0 280.42zm869.75 -221.56l0 501.98 -60.58 0 0 -614.5 46.74 0 406.78 511.51 0 -510.64 60.58 0 0 613.63 -52.8 0 -400.72 -501.98zm912.17 501.98l0 -614.5 60.58 0 0 614.5 -60.58 0zm955.44 -560.84l-218.97 0 0 560.84 -60.59 0 0 -560.84 -218.97 0 0 -53.66 498.53 0 0 53.66zm645.59 510.64c38.66,0 70.83,-7.36 96.5,-22.07 25.68,-14.71 46.16,-34.04 61.45,-57.99 15.29,-23.94 25.97,-51.2 32.02,-81.79 6.06,-30.58 9.09,-61.44 9.09,-92.6l0 -309.85 60.59 0 0 309.85c0,41.54 -4.62,80.92 -13.85,118.14 -9.23,37.21 -24.09,69.96 -44.57,98.23 -20.49,28.27 -47.17,50.78 -80.06,67.51 -32.89,16.73 -72.99,25.1 -120.3,25.1 -48.47,0 -89.29,-8.8 -122.47,-26.4 -33.18,-17.6 -59.86,-40.82 -80.06,-69.67 -20.19,-28.85 -34.62,-61.74 -43.27,-98.67 -8.66,-36.93 -12.99,-75.01 -12.99,-114.24l0 -309.85 59.72 0 0 309.85c0,32.31 3.18,63.76 9.52,94.34 6.35,30.58 17.17,57.7 32.46,81.35 15.29,23.66 35.63,42.7 61.02,57.12 25.38,14.43 57.12,21.64 95.2,21.64zm708.77 50.2l0 -614.5 259.65 0c26.54,0 50.92,5.63 73.13,16.88 22.21,11.25 41.4,25.96 57.55,44.14 16.16,18.17 28.71,38.8 37.65,61.88 8.95,23.08 13.42,46.45 13.42,70.11 0,22.5 -3.32,43.99 -9.95,64.48 -6.64,20.48 -15.87,38.94 -27.7,55.39 -11.83,16.44 -26.11,30.29 -42.84,41.54 -16.73,11.25 -35.49,18.9 -56.26,22.94l150.6 237.14 -68.38 0 -144.53 -226.76 -181.76 0 0 226.76 -60.58 0zm60.58 -280.42l200.8 0c17.88,0 34.18,-3.89 48.9,-11.68 14.71,-7.79 27.26,-18.32 37.65,-31.59 10.38,-13.27 18.46,-28.28 24.23,-45.01 5.77,-16.73 8.65,-34.33 8.65,-52.79 0,-18.47 -3.31,-36.21 -9.95,-53.23 -6.63,-17.02 -15.58,-31.88 -26.83,-44.57 -11.25,-12.7 -24.52,-22.8 -39.81,-30.3 -15.29,-7.5 -31.3,-11.25 -48.04,-11.25l-195.6 0 0 280.42zm1222.01 226.76l0 53.66 -412.84 0 0 -614.5 405.05 0 0 53.66 -344.47 0 0 221.57 300.33 0 0 51.06 -300.33 0 0 234.55 352.26 0z"/>
 </g>
</svg>
